<svg width="22" height="17" viewBox="0 0 22 17" fill="none" xmlns="http://www.w3.org/2000/svg">
<path d="M15.0624 4.44202C15.6452 3.45623 16.4227 2.82908 16.799 3.04125C17.1753 3.25345 17.0079 4.22459 16.4251 5.21037C16.2131 5.56889 15.9752 5.8798 15.7404 6.12032C16.1879 6.45142 16.4712 6.94092 16.4712 7.3998C16.4712 7.85635 16.1908 8.16525 15.7472 8.34528C16.4065 8.95961 16.8285 10.0366 16.8285 10.8897C16.6361 12.1783 15.8946 11.9904 14.6351 11.9904C13.3756 11.9904 12.6502 12.0978 12.4852 10.8897C12.4852 10.0587 12.867 9.01525 13.4842 8.39393C12.9683 8.22367 12.6364 7.90058 12.6364 7.3998C12.6364 6.96391 12.8878 6.50039 13.2932 6.17126C13.0188 5.94237 12.7365 5.60677 12.4971 5.20173C11.9564 4.28727 11.8385 3.36534 12.2337 3.1425C12.6289 2.91967 13.3876 3.48035 13.9282 4.39482C14.2089 4.86966 14.3756 5.34652 14.4157 5.72647C14.4548 5.72385 14.4942 5.72238 14.534 5.72212C14.6137 5.34702 14.7939 4.89606 15.0624 4.44202Z" fill="#FFCD00"/>
<path d="M6.89453 0C6.554 0.922915 6.36821 1.92074 6.36816 2.96191C6.36816 7.68816 10.1995 11.5195 14.9258 11.5195C16.7193 11.5195 18.3835 10.9674 19.7588 10.0244C18.8423 14.0195 15.2673 17 10.9941 17C6.02689 16.9998 2.00017 12.9731 2 8.00586C2 4.51553 3.989 1.49102 6.89453 0ZM13.6162 12.4668C12.834 12.467 12.2002 13.1015 12.2002 13.8838C12.2004 14.6658 12.8342 15.2996 13.6162 15.2998C14.3985 15.2998 15.033 14.666 15.0332 13.8838C15.0332 13.1014 14.3986 12.4668 13.6162 12.4668ZM7.37305 13.5996C6.90925 13.5998 6.5332 13.9766 6.5332 14.4404C6.53339 14.9041 6.90937 15.2801 7.37305 15.2803C7.83686 15.2803 8.21368 14.9042 8.21387 14.4404C8.21387 13.9765 7.83698 13.5996 7.37305 13.5996ZM5.40039 7.93359C4.77455 7.93359 4.26674 8.4406 4.2666 9.06641C4.2666 9.69233 4.77447 10.2002 5.40039 10.2002C6.02613 10.2 6.5332 9.6922 6.5332 9.06641C6.53307 8.44073 6.02605 7.93381 5.40039 7.93359Z" fill="#FFCD00"/>
</svg>
